<mxfile host="app.diagrams.net" modified="2022-03-30T02:09:13.805Z" agent="5.0 (Macintosh; Intel Mac OS X 10_15_7) AppleWebKit/537.36 (KHTML, like Gecko) Chrome/98.0.4758.82 Safari/537.36 Edg/98.0.1108.51" etag="aKdnaVn2lgXwWZu5cFkN" version="17.2.5" type="github">
  <diagram id="h_DfYRZK9u71gayoPXlM" name="Page-1">
    <mxGraphModel dx="1028" dy="695" grid="1" gridSize="10" guides="1" tooltips="1" connect="1" arrows="1" fold="1" page="1" pageScale="1" pageWidth="827" pageHeight="1169" math="0" shadow="0">
      <root>
        <mxCell id="0" />
        <mxCell id="1" parent="0" />
        <mxCell id="A3zNtLxayvY_FKniwDKD-1" value="想饿死111" style="whiteSpace=wrap;html=1;aspect=fixed;" vertex="1" parent="1">
          <mxGeometry x="180" y="80" width="80" height="80" as="geometry" />
        </mxCell>
      </root>
    </mxGraphModel>
  </diagram>
</mxfile>
